<?xml version="1.0" encoding="utf-8"?>
<!-- Generator: Adobe Illustrator 27.0.0, SVG Export Plug-In . SVG Version: 6.00 Build 0) -->
<svg 
    version="1.1" 
    id="Layer_1" 
    xmlns="http://www.w3.org/2000/svg" 
    xmlns:xlink="http://www.w3.org/1999/xlink" 
    x="0px" 
    y="0px"
    viewBox="0 0 3000 3000" 
    style="enable-background:new 0 0 3000 3000;" 
    xml:space="preserve" 
    width="600px" 
    height="600px">
<style type="text/css">
    .st0{fill:#FFCA42;}
    .st1{fill:#F0651A;}
</style>
<path class="st0" d="M2490.24,1351.6c-144.25-3.9-230.86,82.43-274.32,144.59c-41.05,58.71-99.93,102.86-168.37,124.01
    c-116.64,36.03-237.17,32.4-330.35,19.11c-77.12-11-115.13-100.02-69.43-163.1c0.16-0.22,0.3-0.41,0.41-0.56
    c120.07-161.18,250.43-316.82,219.64-531.14c-25.74-179.18-144.34-342.07-297.31-435.6c-18.32-11.2-37.22-21.45-56.66-30.59
    c-51.55-24.26-84.9-84.9-84.9-84.9c-30.37,39.86-22.72,84.47-12.75,112.26c-7.79-1.19-15.64-2.26-23.64-3.1
    c-406.32-42.45-533.67,297.16-533.67,297.16l12.12,491.22c0,0,84.9,163.74-84.9,345.68c-75.57,80.97-118.6,173.53-139.7,268.73
    c-86.12,388.48,200.52,760.42,597.91,780.75c70.14,3.59,149.14,5.76,237.63,5.76c143.46,0,264.01-6.35,363.45-15.58
    c506.35-47,735.58-690.49,682.51-1130.47C2526.3,1532.43,2504.34,1351.98,2490.24,1351.6z"/>
<path class="st1" d="M858.89,799.73c0,0-62.61,26.09-118.02,46.65c-31.02,11.51-65.18,10.97-95.91-1.28
    c-22.65-9.03-51.44-20.81-81.77-34.02c-49.36-21.49-105.2,16.34-101.32,70.03c3.58,49.5,24.39,108.65,87.73,161.2
    c0,0-4.43,8.06-9.18,20.79c-16.73,44.84,8.42,94.51,54.35,107.95c78.75,23.06,213.87,67.91,276.25,119.9c0,0,72.77-9.1,94-60.65
    c0,0,97.03,15.16,115.23-69.74c18.19-84.9-124.32-97.03-169.81-197.1C864.95,863.41,858.89,799.73,858.89,799.73z"/>
<path class="st1" d="M1246.49,2027.61c0,0,317.93,388.92,706.6,126.68c0,0-19.6-75.82-61.55-126.93c0,0,85.03,23.5,127.28,140.2
    c0,0-155.74,199.66-395.32,159.24C1383.92,2286.4,1267.61,2137.2,1246.49,2027.61z"/>
<circle cx="1135.93" cy="877.89" r="78.16"/>
</svg>
